<?xml version="1.0" standalone="no"?>
<!DOCTYPE svg PUBLIC "-//W3C//DTD SVG 20010904//EN"
 "http://www.w3.org/TR/2001/REC-SVG-20010904/DTD/svg10.dtd">
<svg version="1.0" xmlns="http://www.w3.org/2000/svg"
 width="260.000000pt" height="260.000000pt" viewBox="0 0 260.000000 260.000000"
 preserveAspectRatio="xMidYMid meet">
<metadata>
Created by potrace 1.11, written by Peter Selinger 2001-2013
</metadata>
<g transform="translate(0.000000,260.000000) scale(0.100000,-0.100000)"
fill="#000000" stroke="none">
<path d="M1136 2490 c-455 -72 -833 -395 -970 -828 -153 -487 19 -1019 428
-1324 97 -73 273 -160 387 -192 224 -63 483 -58 709 15 36 12 110 44 164 72
588 299 822 1009 529 1603 -94 192 -270 382 -456 491 -198 117 -356 163 -582
168 -82 2 -177 0 -209 -5z m310 -351 c336 -59 598 -298 685 -624 30 -113 30
-317 0 -430 -78 -292 -293 -512 -588 -601 -78 -24 -105 -27 -228 -27 -111 1
-157 5 -220 22 -298 80 -526 308 -606 606 -30 113 -30 317 0 430 100 373 429
630 812 634 47 1 112 -4 145 -10z"/>
<path d="M1644 1731 c-21 -16 -128 -118 -236 -228 l-197 -199 -113 113 c-122
123 -161 148 -210 138 -33 -8 -162 -124 -210 -189 -54 -75 -57 -71 229 -358
174 -174 266 -259 284 -263 17 -4 42 0 63 10 21 10 177 161 373 362 412 422
391 371 227 534 -126 124 -142 130 -210 80z"/>
</g>
</svg>
